<svg width="760" height="820" viewBox="0 0 760 820" fill="none" xmlns="http://www.w3.org/2000/svg">
  <defs>
    <linearGradient id="bg" x1="74" y1="12" x2="718" y2="760" gradientUnits="userSpaceOnUse">
      <stop stop-color="#F5FDFF"/>
      <stop offset=".52" stop-color="#DDF6FF"/>
      <stop offset="1" stop-color="#BFEAFF"/>
    </linearGradient>
    <linearGradient id="blue" x1="122" y1="117" x2="608" y2="641" gradientUnits="userSpaceOnUse">
      <stop stop-color="#37C7F4"/>
      <stop offset="1" stop-color="#0477BD"/>
    </linearGradient>
    <linearGradient id="gold" x1="430" y1="142" x2="596" y2="348" gradientUnits="userSpaceOnUse">
      <stop stop-color="#F2D787"/>
      <stop offset="1" stop-color="#B78B32"/>
    </linearGradient>
    <filter id="shadow" x="-20%" y="-20%" width="140%" height="150%" color-interpolation-filters="sRGB">
      <feDropShadow dx="0" dy="26" stdDeviation="23" flood-color="#063B5E" flood-opacity=".18"/>
    </filter>
    <filter id="soft" x="-30%" y="-30%" width="160%" height="160%" color-interpolation-filters="sRGB">
      <feGaussianBlur stdDeviation="18"/>
    </filter>
    <clipPath id="screenClip">
      <rect x="104" y="126" width="504" height="332" rx="30"/>
    </clipPath>
  </defs>

  <rect width="760" height="820" rx="0" fill="url(#bg)"/>
  <circle cx="614" cy="104" r="182" fill="#7DD3FC" opacity=".22" filter="url(#soft)"/>
  <circle cx="92" cy="724" r="242" fill="#0EA5E9" opacity=".12" filter="url(#soft)"/>
  <path d="M61 661C188 530 243 317 381 220C495 140 603 164 719 64V820H61V661Z" fill="#A7E3FF" opacity=".38"/>
  <path d="M0 533C135 497 225 409 312 291C379 199 478 157 760 178V820H0V533Z" fill="#E9FBFF" opacity=".72"/>

  <g filter="url(#shadow)">
    <rect x="104" y="126" width="504" height="332" rx="30" fill="#FFFFFF"/>
    <rect x="104" y="126" width="504" height="332" rx="30" stroke="#B8E5F7" stroke-width="2"/>
    <g clip-path="url(#screenClip)">
      <rect x="104" y="126" width="504" height="84" fill="#F2FBFF"/>
      <circle cx="151" cy="168" r="10" fill="#EF4444"/>
      <circle cx="184" cy="168" r="10" fill="#F59E0B"/>
      <circle cx="217" cy="168" r="10" fill="#10B981"/>
      <rect x="470" y="155" width="82" height="22" rx="11" fill="#DDF4FF"/>
      <rect x="144" y="246" width="164" height="150" rx="24" fill="#EAF9FF"/>
      <rect x="342" y="246" width="214" height="150" rx="24" fill="#F8FCFF"/>
      <rect x="144" y="246" width="164" height="150" rx="24" stroke="#C9EFFF" stroke-width="2"/>
      <rect x="342" y="246" width="214" height="150" rx="24" stroke="#C9EFFF" stroke-width="2"/>
      <rect x="180" y="312" width="26" height="48" rx="9" fill="url(#blue)"/>
      <rect x="221" y="284" width="26" height="76" rx="9" fill="url(#gold)"/>
      <rect x="262" y="327" width="26" height="33" rx="9" fill="#0EA5E9"/>
      <path d="M376 355C408 319 427 338 449 305C474 269 500 287 536 252" stroke="#0EA5E9" stroke-width="12" stroke-linecap="round"/>
      <path d="M376 355C408 319 427 338 449 305C474 269 500 287 536 252" stroke="#FFFFFF" stroke-width="4" stroke-linecap="round" opacity=".9"/>
    </g>
  </g>

  <g filter="url(#shadow)">
    <rect x="150" y="495" width="460" height="178" rx="34" fill="#081426"/>
    <rect x="184" y="530" width="250" height="96" rx="22" fill="#E7F9FF"/>
    <rect x="205" y="552" width="112" height="15" rx="8" fill="#9EDDF4"/>
    <rect x="205" y="582" width="184" height="14" rx="7" fill="#C9D8E6"/>
    <rect x="458" y="530" width="96" height="96" rx="22" fill="url(#blue)"/>
    <path d="M175 672H584" stroke="#0F1D33" stroke-width="28" stroke-linecap="round"/>
    <circle cx="225" cy="704" r="35" fill="#0B1324"/>
    <circle cx="534" cy="704" r="35" fill="#0B1324"/>
  </g>

  <g filter="url(#shadow)">
    <rect x="514" y="384" width="148" height="96" rx="22" fill="#FFFFFF"/>
    <text x="588" y="431" text-anchor="middle" font-family="Arial, sans-serif" font-size="28" font-weight="900" fill="#0284C7">POS</text>
    <rect x="548" y="450" width="80" height="10" rx="5" fill="#D6DEE8"/>
  </g>

  <g filter="url(#shadow)">
    <rect x="78" y="424" width="126" height="90" rx="20" fill="#FFFFFF"/>
    <rect x="105" y="450" width="10" height="40" rx="5" fill="#0F172A"/>
    <rect x="126" y="450" width="10" height="40" rx="5" fill="#0F172A"/>
    <rect x="147" y="450" width="18" height="40" rx="5" fill="#0F172A"/>
    <rect x="176" y="450" width="10" height="40" rx="5" fill="#0F172A"/>
  </g>

  <g filter="url(#shadow)">
    <rect x="502" y="54" width="158" height="90" rx="18" fill="#FFFFFF"/>
    <text x="581" y="92" text-anchor="middle" font-family="Arial, sans-serif" font-size="13" font-weight="800" fill="#64748B">مبيعات اليوم</text>
    <text x="581" y="123" text-anchor="middle" font-family="Arial, sans-serif" font-size="24" font-weight="900" fill="#0284C7">IQD 287,900</text>
  </g>
</svg>
